<svg width="42" height="42" viewBox="0 0 42 42" fill="none" xmlns="http://www.w3.org/2000/svg">
<g clip-path="url(#clip0_8290_24029)">
<path fill-rule="evenodd" clip-rule="evenodd" d="M6.81359 0.427616C7.27445 0.295731 7.27704 0.314129 7.32548 0.30493C7.87946 0.199919 8.07642 0.138318 8.2632 0.12054C9.2718 0.0245203 9.26983 -0.000905837 12.3113 2.43856e-05C18.409 0.000127744 24.5067 0.000230875 30.6043 0.000437591C33.6796 -0.00349002 33.8102 0.133046 34.5583 0.262864C35.2921 0.390201 36.3291 0.771075 37.0629 1.18916C37.5166 1.44766 38.7425 2.08848 39.939 3.6096C39.9944 3.67999 40.3917 4.18499 40.5885 4.52132C41.8352 6.65039 41.9028 8.53658 41.9149 8.66154C41.9601 9.13057 42.0101 9.64809 41.9982 14.551C41.9835 20.7125 42.0252 32.8403 41.964 33.7779C41.7835 36.5476 40.5638 38.1463 40.1876 38.6482C39.595 39.439 38.8712 40.0166 38.7421 40.1195C37.3823 41.2046 36.4189 41.4398 35.8948 41.5971C35.1071 41.8335 35.1034 41.8186 34.0361 41.9569C33.4537 42.0324 29.6996 41.9794 29.2529 41.9883C28.7707 41.9978 28.7028 41.9992 23.2247 41.9999C23.0085 42 20.5606 42.0003 20.5224 41.9991C20.2302 41.9894 10.1382 42.0143 8.56877 41.9854C7.37048 41.9633 6.54356 41.7262 6.3731 41.6773C5.94104 41.5534 3.84525 41.0878 1.99528 38.8612C1.48921 38.252 1.15765 37.6424 1.11805 37.5806C0.951438 37.3204 0.513032 36.2327 0.433936 35.954C0.235728 35.2557 0.182095 34.9 0.168064 34.8069C0.00872824 33.7497 0.014862 32.8729 0.0123675 32.122C-0.0109144 25.0787 0.00529817 17.7636 0.00810447 16.515C0.0178745 12.1253 -0.0447988 8.96231 0.233544 7.72408C0.441522 6.79882 0.448176 6.77949 0.475199 6.6997C0.807694 5.72058 1.16233 4.64969 2.48929 3.1265C2.7562 2.82005 3.54019 2.1169 3.72021 1.98894C5.30837 0.860067 5.85155 0.740584 6.81359 0.427616Z" fill="#3D62B2"/>
</g>
<path fill-rule="evenodd" clip-rule="evenodd" d="M8.48478 29.2596C8.44933 29.2116 8.38479 29.1903 8.34935 29.1423C8.31775 29.0995 8.216 28.3138 8.15415 27.8842C8.05417 27.1899 8.01093 25.7217 8.44486 23.952C8.6385 23.1623 8.67031 23.1733 8.89886 22.517C9.10622 21.9217 9.49452 21.1537 9.53703 21.0815C9.57092 21.0241 9.55897 21.0186 9.93491 20.3485C9.93532 20.3478 10.3444 19.6766 10.3706 19.6393C10.7831 19.0512 10.8201 18.9043 11.8842 17.6443C12.7593 16.6082 14.0306 15.4377 14.5734 14.9398C14.974 14.5724 14.9791 14.5813 15.9145 13.7889C15.9473 13.7612 15.9466 13.7622 16.7716 13.0949C17.374 12.6077 19.0074 11.4529 19.1601 11.3346C19.277 11.2442 19.2868 11.2589 20.652 10.2467C20.7802 10.1516 21.1721 9.88216 21.2176 9.85084C21.4857 9.66645 21.5461 9.87244 21.6762 10.4139C21.8139 10.9877 21.8412 10.9788 21.9807 11.5529C22.0585 11.8728 22.0796 11.8643 22.1655 12.1812C22.1816 12.2407 22.1741 12.3108 22.2107 12.3605C22.2264 12.3819 22.2633 12.3502 22.2899 12.3502C22.3326 12.3503 22.3619 12.3962 22.4087 12.2937C22.4519 12.1987 22.7699 11.5012 22.9845 11.1226C23.0283 11.0455 23.0192 11.042 23.4783 10.1311C23.6662 9.75834 23.679 9.76743 23.8674 9.39358C23.9715 9.18718 23.9581 9.18253 24.0698 8.97933C24.2569 8.63928 25.8911 5.46577 26.2365 4.73183C26.3334 4.52614 26.5445 4.27798 26.522 4.21648C26.4801 4.10124 26.4404 4.12501 26.3334 4.18796C26.2768 4.22124 26.2976 4.24801 25.6915 4.69658C23.5475 6.28716 21.4034 7.87763 19.2594 9.46821C19.0758 9.60433 19.0686 9.59059 18.8862 9.73198C18.784 9.81115 18.7712 9.79337 17.5828 10.6889C15.5985 12.184 15.2449 12.4663 14.6149 13.0222C14.2738 13.3232 12.8108 14.4878 10.9939 16.4441C10.9409 16.5012 10.407 17.1158 10.2161 17.329C9.67142 17.9372 8.87152 19.0924 8.6781 19.413C8.61501 19.5176 8.59204 19.5039 8.06768 20.4526C8.04086 20.5012 8.05406 20.5069 7.76023 21.0748C7.7461 21.1021 7.52149 21.6224 7.50091 21.6701C7.26102 22.2257 6.92011 23.3601 6.84517 23.8608C6.66474 25.0663 6.65943 25.3736 6.65715 25.5061C6.63885 26.5746 6.70641 26.5701 6.7509 26.9606C6.85317 27.8588 6.85941 27.8565 7.0466 28.5997C7.17372 29.1042 7.15625 29.1088 7.39988 29.7547C7.48449 29.9789 7.61576 30.0286 7.65837 30.0717C7.61597 30.113 7.62054 30.1161 7.13619 30.5961C6.87115 30.8587 6.80256 30.6016 6.65881 30.3892C6.31 29.8738 5.83241 28.831 5.83199 28.8303C5.6396 28.4626 5.29713 27.2921 5.25743 27.1562C5.23145 27.0676 5.20504 26.9774 5.01536 26.0278C4.99998 25.9507 4.8159 24.6593 4.94281 23.5448C4.98595 23.1667 4.9901 23.0038 5.03428 22.8199C5.16264 22.2863 5.14986 22.0534 5.32239 21.5705C5.47154 21.153 5.44607 21.1452 5.61747 20.7353C5.68877 20.5647 5.89737 19.825 6.69405 18.4768C7.1917 17.6346 7.57107 17.1583 7.65681 17.0505C9.11411 15.2203 9.25277 15.1585 10.4638 13.9556C10.5927 13.8275 10.7711 13.6505 12.1346 12.4164C12.2473 12.3144 12.5985 12.0227 12.6391 11.9888C12.9509 11.7298 12.9381 11.7166 13.2563 11.4647C13.6313 11.1677 13.6251 11.1629 14.0005 10.8664C14.5872 10.4033 14.5758 10.3923 15.1813 9.95348C15.3131 9.85797 15.5413 9.66252 15.5718 9.63627C15.5993 9.61281 15.6061 9.62407 15.9309 9.36175C16.0278 9.2834 16.0344 9.29643 17.1736 8.42378C17.2631 8.35535 17.8796 7.88301 18.2993 7.5782C18.4191 7.49128 18.4209 7.43423 18.4216 7.4182C18.4258 7.29231 18.3669 7.32291 18.1431 7.1902C17.6916 6.9225 16.8007 6.47847 16.3858 6.24189C15.7843 5.89894 15.2441 5.64324 15.2435 5.64231C15.2306 5.62318 15.2366 5.50525 15.2482 5.49492C15.2839 5.46319 16.0907 5.38567 17.1941 5.14226C17.3417 5.1097 17.9754 5.02629 18.2413 4.96593C19.1165 4.76728 19.1283 4.83208 19.9983 4.61772C20.2337 4.55973 20.7842 4.51116 21.6633 4.31498C21.6847 4.31023 22.3303 4.2048 22.3883 4.19529C22.9386 4.10548 23.134 4.02082 23.5299 3.97411C24.0577 3.91189 24.531 3.78124 24.7896 3.73917C25.7772 3.57856 25.7665 3.52719 26.7531 3.36615C27.5169 3.2415 27.5827 3.14487 27.6058 3.27468C27.6412 3.47385 27.5712 3.46011 27.4303 3.7246C27.2666 4.03188 27.278 4.0356 27.1053 4.33948C27.0797 4.38433 27.098 4.39271 26.8149 4.91663C26.6928 5.14247 26.7113 5.1497 26.5789 5.36965C26.418 5.63683 26.4549 5.6543 26.2688 5.98845C26.2275 6.06266 26.1545 6.25553 26.0606 6.40509C25.8452 6.74855 25.6932 7.16053 25.3789 7.71608C25.3516 7.76445 25.354 7.76538 25.0616 8.33416C24.586 9.25953 24.0443 10.3368 24.0125 10.3962C23.8907 10.6236 23.5742 11.2419 23.5644 11.259C23.4628 11.4356 23.488 11.4483 22.4019 13.5238C22.2925 13.7331 22.2993 13.7339 22.2037 13.9512C22.1974 13.9656 22.0668 14.2625 22.0078 13.9194C21.9438 13.5473 21.9377 13.5506 21.82 13.1933C21.754 12.993 21.6818 12.591 21.5433 12.1795C21.4927 12.029 21.1986 10.79 21.1336 10.7374C21.0624 10.6799 20.9593 10.7363 20.9462 10.7435C20.9297 10.7526 17.5116 13.2102 16.3782 14.1567C16.1897 14.314 16.1764 14.2955 15.8108 14.6174C15.691 14.7229 13.5586 16.4338 11.8229 18.6067C11.6115 18.8715 11.3553 19.231 11.2022 19.4354C10.9062 19.8304 10.5132 20.4587 10.4252 20.6429C10.3582 20.7828 10.168 21.0542 10.0159 21.3691C9.57466 22.2816 9.2854 22.8711 8.90354 24.4795C8.84866 24.7105 8.82455 24.707 8.7362 25.6062C8.51367 27.8728 8.96964 28.7375 8.75418 29.0012C8.73526 29.0244 8.73007 29.0188 8.48478 29.2596Z" fill="#E1EAFF"/>
<path fill-rule="evenodd" clip-rule="evenodd" d="M13.8044 33.3917C13.9586 33.2391 13.9638 33.2463 14.1175 33.0894C14.1912 33.0142 14.913 32.2777 15.0466 32.1569C15.2191 32.0009 15.2765 32.0166 15.8639 32.402C16.0559 32.528 16.6158 32.8644 16.7005 32.9046C17.9439 33.4931 18.1174 33.4967 18.3358 33.5808C18.885 33.7922 18.8954 33.7543 19.2774 33.8749C19.8702 34.0619 21.3201 34.2467 21.5651 34.2601C23.5333 34.368 24.3554 34.1338 24.8844 34.0599C25.7225 33.9427 26.8785 33.5211 26.9753 33.4929C27.2383 33.4164 27.9753 33.1173 28.0259 33.093C28.2553 32.9829 28.5377 32.873 28.622 32.8292C29.3392 32.4571 29.6247 32.302 30.8025 31.4855C30.9187 31.405 32.3416 30.3574 33.4975 28.8022C33.9431 28.2025 33.9239 28.1917 34.3251 27.5614C34.7079 26.9597 34.952 26.4066 34.985 26.3418C35.1432 26.0308 35.1155 26.0206 35.259 25.7032C35.4349 25.3147 35.6682 24.5868 35.6724 24.5705C35.6868 24.5124 35.9669 23.5875 36.0419 22.9273C36.1324 22.1287 36.3126 21.8356 36.1909 19.7205C36.1856 19.6284 36.178 19.4976 36.0343 18.5785C35.8765 17.5693 35.8251 17.5806 35.7478 17.2276C35.6316 16.6968 35.5883 16.7109 35.4287 16.191C35.3322 15.8766 35.3046 15.8882 35.188 15.5808C35.047 15.2093 34.9091 14.9488 34.9085 14.9473C34.7786 14.6453 34.7704 14.6516 34.634 14.3552C34.4668 13.9918 34.4365 14.0101 34.2786 13.706C34.1276 13.4156 34.3208 13.4353 34.74 12.9794C34.8454 12.8649 34.8431 12.8016 34.9863 12.864C35.06 12.8961 35.1571 13.1443 35.3131 13.3949C35.3573 13.4657 35.6226 13.93 35.7096 14.1322C35.7218 14.1609 36.0335 14.8237 36.0618 14.8838C36.2144 15.2083 36.6667 16.3991 36.8085 16.9371C37.026 17.7626 37.039 17.7598 37.0771 18.0618C37.132 18.4979 37.1681 18.5578 37.2059 18.7977C37.5621 21.0579 37.3329 22.6091 37.307 22.9275C37.2434 23.7096 37.1767 23.6995 37.0861 24.4785C37.0406 24.8691 36.9148 25.191 36.8641 25.4093C36.6402 26.3725 36.2671 27.2678 36.2626 27.2801C36.1493 27.5884 36.139 27.5825 36.0112 27.885C35.6383 28.7673 35.5602 28.8413 35.4721 29.0117C35.2168 29.5048 35.2004 29.4952 35.1783 29.5382C34.9648 29.9558 34.2991 30.9862 33.8038 31.5865C33.2299 32.2819 33.2354 32.2851 32.5909 32.9589C32.2594 33.3058 32.2492 33.293 31.8945 33.6152C28.5853 36.6221 25.3611 37.316 24.8785 37.4645C24.2422 37.6604 24.2053 37.619 23.2265 37.8122C23.0202 37.8529 22.2223 37.9273 21.7708 37.9378C20.2738 37.9723 19.4641 37.8185 18.9595 37.727C17.4004 37.4446 16.8081 37.1069 16.2554 36.8913C15.5897 36.6316 14.6107 36.0676 14.0704 35.6477C13.6813 35.3452 13.0157 34.8673 12.8564 34.6837C12.6547 34.451 12.8071 34.4114 13.2842 33.915C13.6692 33.5145 13.7607 33.4314 13.8044 33.3917Z" fill="#E1EAFF"/>
<path fill-rule="evenodd" clip-rule="evenodd" d="M23.8007 18.1707C23.672 15.6123 23.6658 15.4072 23.7277 15.266C23.7782 15.1505 24.9824 14.0593 25.0944 13.9292C25.239 13.7612 27.0058 12.0746 27.2989 11.7803C28.2023 10.873 28.2193 10.8927 28.5585 10.5537C29.6102 9.5021 29.6215 9.51564 29.7121 9.42354C30.7517 8.36784 30.7754 8.39234 30.8646 8.29942C31.2675 7.8801 31.2798 7.89395 31.4938 7.67989C31.597 7.57664 31.5989 7.58108 31.7051 7.47876C34.3742 4.9099 34.4195 4.77202 34.5592 4.75527C34.7462 4.73274 35.0153 5.10276 35.1789 5.24788C35.3589 5.40757 35.3564 5.40994 37.3032 7.37695C38.2059 8.28909 38.295 8.34728 38.2952 8.45291C38.2954 8.54056 38.2844 8.54655 37.5458 9.25569C36.3024 10.4496 35.2808 11.4633 34.9697 11.7601C34.8255 11.8976 34.8277 11.8997 33.1779 13.4923C33.064 13.6022 32.0162 14.6138 31.7604 14.8727C31.1927 15.4476 31.1891 15.4417 30.6037 15.9969C30.4036 16.1868 30.4217 16.2047 28.1272 18.3945C27.5107 18.9827 27.5195 19.1299 27.1746 19.1018C26.24 19.0257 26.2398 19.0473 25.3054 18.976C24.2382 18.8946 24.2379 18.9567 24.0613 19.0088C24.0355 19.0164 23.851 19.0708 23.7437 18.8929C23.6553 18.7462 23.666 18.734 23.7301 18.5749C23.8082 18.3811 23.7977 18.3786 23.8007 18.1707Z" fill="#E1EAFF"/>
<path fill-rule="evenodd" clip-rule="evenodd" d="M16.3669 23.2946C17.0736 23.3246 18.6109 23.4341 18.7491 23.3999C18.7906 23.3895 18.8295 23.371 18.8681 23.3527C19.0528 23.2656 19.0803 23.2418 19.2289 23.3824C19.4196 23.563 19.2226 23.7308 19.1887 23.8589C19.1264 24.0944 19.1749 24.7189 19.2111 26.4376C19.2237 27.0329 19.2796 27.0801 18.9705 27.3751C17.8922 28.404 17.9091 28.4205 17.8751 28.4556C17.577 28.7628 17.5456 28.7298 16.6617 29.628C16.563 29.7283 16.5567 29.7216 15.4151 30.8693C15.206 31.0794 15.0248 31.216 14.157 32.0989C13.8996 32.3608 10.5318 35.6792 9.77111 36.4182C9.0448 37.1239 9.05021 37.1279 8.98701 37.189C8.94866 37.2261 8.74339 37.4244 8.49903 37.6434C8.31725 37.8064 8.266 37.7063 7.80182 37.2249C6.29172 35.6592 4.74877 34.1558 4.72383 34.0861C4.66105 33.9106 4.78619 33.8474 5.31513 33.3288C5.69813 32.9533 6.21928 32.4157 10.6583 28.1028C10.8915 27.8762 12.0478 26.7241 12.1683 26.6039C12.2636 26.5089 12.2701 26.5172 13.3731 25.4284C14.183 24.629 14.1894 24.6373 14.9977 23.8375C15.4787 23.3616 15.4785 23.3617 15.529 23.3319C15.6921 23.2354 15.9287 23.2655 16.3669 23.2946Z" fill="#E1EAFF"/>
<path fill-rule="evenodd" clip-rule="evenodd" d="M8.485 29.2601C8.14606 29.5983 8.04108 29.7539 7.65859 30.0722C7.61598 30.0291 7.48471 29.9794 7.4001 29.7552C7.15647 29.1093 7.17394 29.1046 7.04682 28.6002C6.85963 27.857 6.85339 27.8593 6.75112 26.9611C6.70663 26.5706 6.63907 26.5751 6.65737 25.5065C6.65965 25.374 6.66496 25.0668 6.84539 23.8613C6.92033 23.3605 7.26124 22.2262 7.50113 21.6706C7.52171 21.6229 7.74632 21.1026 7.76045 21.0753C8.05428 20.5073 8.04108 20.5016 8.0679 20.4531C8.59226 19.5043 8.61523 19.5181 8.67832 19.4135C8.87175 19.0929 9.67164 17.9376 10.2163 17.3295C10.4072 17.1162 10.9411 16.5017 10.9941 16.4445C12.8111 14.4883 14.274 13.3236 14.6151 13.0226C15.2452 12.4668 15.5988 12.1845 17.583 10.6893C18.7714 9.79384 18.7842 9.81161 18.8864 9.73244C19.0688 9.59105 19.076 9.6048 19.2596 9.46867C21.4036 7.8781 23.5478 6.28762 25.6918 4.69704C26.2978 4.24847 26.277 4.2217 26.3336 4.18842C26.4406 4.12547 26.4803 4.1017 26.5222 4.21695C26.5447 4.27844 26.3336 4.52661 26.2367 4.73229C25.8913 5.46623 24.2571 8.63974 24.07 8.97979C23.9583 9.18299 23.9717 9.18764 23.8677 9.39405C23.6792 9.76789 23.6665 9.7588 23.4785 10.1316C23.0194 11.0425 23.0285 11.0459 22.9847 11.123C22.7701 11.5016 22.4522 12.1992 22.4089 12.2942C22.3621 12.3967 22.3328 12.3508 22.2901 12.3507C22.2635 12.3507 22.2266 12.3823 22.2109 12.3609C22.1743 12.3112 22.1818 12.2411 22.1657 12.1816C22.0798 11.8647 22.0588 11.8733 21.9809 11.5534C21.8414 10.9793 21.8141 10.9881 21.6764 10.4144C21.5463 9.87291 21.486 9.66691 21.2178 9.8513C21.1723 9.88262 20.7804 10.1521 20.6522 10.2472C19.2871 11.2594 19.2772 11.2447 19.1604 11.3351C19.0076 11.4534 17.3742 12.6082 16.7718 13.0954C15.9468 13.7627 15.9476 13.7617 15.9147 13.7894C14.9793 14.5818 14.9742 14.5729 14.5736 14.9402C14.0309 15.4381 12.7595 16.6086 11.8845 17.6448C10.8204 18.9047 10.7834 19.0516 10.3708 19.6397C10.3446 19.677 9.93554 20.3482 9.93513 20.349C9.55919 21.019 9.57114 21.0245 9.53725 21.082C9.49474 21.1541 9.10644 21.9222 8.89908 22.5174C8.67053 23.1737 8.63872 23.1628 8.44509 23.9524C8.01115 25.7221 8.05439 27.1903 8.15437 27.8847C8.21622 28.3143 8.31797 29.1 8.34957 29.1428C8.38501 29.1907 8.44955 29.212 8.485 29.2601Z" fill="#E57E21"/>
<path fill-rule="evenodd" clip-rule="evenodd" d="M4.78286 19.3007C4.8157 19.0176 4.81435 19.0193 4.8183 18.995C4.99707 17.8891 5.02337 17.8952 5.09301 17.6412C5.10912 17.5823 5.19861 17.1108 5.25827 16.934C5.39255 16.5366 5.3964 16.5385 5.4068 16.5036C5.51479 16.1412 5.51281 16.1428 5.6471 15.7875C5.80342 15.3739 5.79812 15.3734 5.96889 14.9647C6.50083 13.6907 7.3499 12.4191 7.6667 11.9903C8.94834 10.256 10.0655 9.30468 10.9306 8.62396C11.9463 7.8249 12.951 7.31121 13.0584 7.2495C13.7667 6.84351 14.0777 6.7507 14.3033 6.62843C14.7431 6.38967 14.7927 6.47246 15.4579 6.85354C15.8458 7.07565 15.9325 7.01819 15.944 7.1109C15.9642 7.27307 15.7871 7.21612 15.3167 7.40433C14.8808 7.5787 12.1453 8.52473 9.54047 11.3801C9.08284 11.8818 8.04835 13.1644 7.35634 14.5677C6.82647 15.6422 6.87678 15.6619 6.70632 16.1058C6.3785 16.9597 6.49148 17.0062 6.17031 17.5439C5.83668 18.1024 5.81932 18.0911 5.51759 18.6688C5.10829 19.4522 5.13209 19.4723 5.06214 19.63C4.74929 20.3351 4.90114 20.4318 4.71665 20.5199C4.50244 20.6222 4.70418 19.8968 4.78286 19.3007Z" fill="#E1EAFF"/>
<path fill-rule="evenodd" clip-rule="evenodd" d="M21.8864 22.2131C21.8519 22.1872 21.8054 22.1804 21.7709 22.1546C21.726 22.1209 21.736 22.1108 21.265 21.6693C21.2143 21.6219 20.1467 20.5225 19.6544 20.0782C19.2742 19.7352 19.1822 19.5124 18.9702 19.828C18.6193 20.3502 18.6497 20.3666 18.475 20.8688C18.3505 21.2268 18.4796 21.2593 19.0852 21.8725C19.7855 22.5812 20.4772 23.2519 20.5996 23.3706C20.8245 23.5887 20.9661 23.6655 20.9878 23.7527C20.9966 23.788 20.9626 23.8253 20.9715 23.8607C20.9646 23.8849 20.9398 24.0618 20.8543 24.101C20.7449 24.1513 20.7395 24.1163 20.6561 24.0304C19.8141 23.1627 19.8085 23.17 18.9604 22.3077C18.134 21.4675 18.0545 21.4915 18.0299 21.1663C17.9713 20.396 18.9455 19.0204 19.8106 18.3967C19.8442 18.3724 19.8466 18.3764 20.238 18.1037C20.7298 17.7609 21.3067 17.5928 21.5514 17.6829C21.851 17.7932 22.1257 18.1302 22.44 18.4325C23.1802 19.1446 23.1593 19.1626 23.8913 19.8814C23.9453 19.9345 23.9434 19.934 23.9957 19.9871C24.1005 20.0933 24.1022 20.0897 24.2048 20.1984C24.2848 20.2833 24.3782 20.3395 24.3728 20.4434C24.3658 20.5815 24.3058 20.5395 24.1741 20.5815C23.2116 20.8883 22.5581 21.5114 22.0378 22.0531C21.9345 22.1607 21.9344 22.1586 21.8864 22.2131Z" fill="#E1EAFF"/>
<path fill-rule="evenodd" clip-rule="evenodd" d="M22.8867 28.5966C22.8721 28.6307 22.8638 28.6233 22.8502 28.6552C22.8184 28.7302 22.83 28.7317 22.8267 28.7378C22.82 28.7504 22.799 28.7511 22.7922 28.7638C22.7698 28.7538 22.7471 28.8032 22.7248 28.7933C22.6102 28.7422 22.654 27.8582 22.658 27.7769C22.6824 27.2848 22.9604 26.1739 23.5471 25.3072C23.7565 24.9978 23.7476 24.9935 23.9729 24.6943C24.5415 23.9392 25.4592 23.2502 25.5034 23.22C25.8318 22.996 25.8269 22.9901 25.8565 22.9724C26.9026 22.3457 27.5699 22.198 27.5884 22.1921C28.0912 22.0342 29.1499 22.0111 29.2227 22.119C29.2307 22.1308 29.283 22.2082 29.135 22.2737C29.0633 22.3053 28.9408 22.2254 28.0319 22.7588C27.8296 22.8776 27.5597 23.066 27.305 23.2525C26.9062 23.5442 26.5444 23.831 26.5374 23.8371C26.0378 24.2702 25.8281 24.4371 25.6028 24.6667C24.4242 25.8677 24.1523 26.269 23.8784 26.6635C23.8404 26.7182 23.5686 27.1095 23.4289 27.3644C23.1035 27.9578 23.059 27.9416 22.8867 28.5966Z" fill="#E1EAFF"/>
<path fill-rule="evenodd" clip-rule="evenodd" d="M11.8529 25.9101C11.7724 26.0661 11.785 26.0749 11.6558 26.196C11.4125 26.4241 11.2936 26.4872 11.1157 26.6862C10.7153 27.1337 10.6897 27.1076 9.81187 27.9797C9.79691 27.9946 9.6463 28.1442 9.60441 28.1428C9.54954 28.1412 9.4668 28.1386 9.47751 27.4718C9.48333 27.109 9.50973 27.1103 9.48801 26.7477C9.45911 26.2625 9.67239 24.926 9.80657 24.4698C9.88848 24.1913 9.92465 23.8042 10.4326 22.6098C10.6337 22.1369 10.6482 22.1453 10.8375 21.6668C10.8579 21.6154 10.872 21.5602 10.9025 21.5139C10.9368 21.4618 11.0491 21.4937 11.0616 21.5798C11.0689 21.6308 10.9184 22.1743 11.0814 23.4372C11.1304 23.8175 11.3693 24.7164 11.4256 24.8664C11.6863 25.5597 11.7366 25.6578 11.7703 25.7235C11.8295 25.839 11.8217 25.8398 11.8529 25.9101Z" fill="#E1EAFF"/>
<path fill-rule="evenodd" clip-rule="evenodd" d="M34.8501 11.3316C34.6505 11.5303 33.35 12.7793 33.1132 13.0138C32.8041 13.3198 32.7446 13.407 32.5675 13.2184C31.4211 11.9976 31.2633 12.0048 31.3833 11.7939C31.4513 11.6742 33.0509 10.1399 33.1983 9.99846C33.5516 9.65965 33.6327 9.56529 33.8174 9.70348C33.849 9.72714 33.8472 9.7289 34.4925 10.3748C35.0739 10.9567 35.074 10.9661 35.0751 11.0364C35.0763 11.1166 35.0602 11.1115 35.0061 11.1689C34.9937 11.1819 34.9053 11.2758 34.8501 11.3316Z" fill="#A3BCF0"/>
<path fill-rule="evenodd" clip-rule="evenodd" d="M13.9831 31.72C13.7921 31.8943 13.7163 32.0223 13.5302 31.8438C13.4134 31.7317 12.3816 30.6899 12.3537 30.6471C12.2236 30.4466 12.4266 30.3169 12.8195 29.9418C12.9254 29.8406 12.944 29.8228 14.1284 28.6603C14.5529 28.2438 14.5563 28.2425 14.6051 28.2254C14.7185 28.1855 14.7165 28.2473 15.8677 29.4127C16.0402 29.5872 16.0858 29.6373 15.9125 29.8131C14.8816 30.8587 14.1398 31.5699 13.9831 31.72Z" fill="#A3BCF0"/>
<path fill-rule="evenodd" clip-rule="evenodd" d="M34.1427 9.48064C33.9628 9.2701 33.9967 9.21666 34.1973 9.02659C34.6789 8.57026 35.4571 7.80913 35.566 7.70257C36.2384 7.0449 36.2673 6.95725 36.4057 7.03632C36.4383 7.05503 37.0406 7.64634 37.1345 7.74484C37.6959 8.33398 37.8045 8.35238 37.6798 8.56189C37.6676 8.58225 36.8834 9.36198 36.7438 9.49428C35.9606 10.2372 35.9759 10.2519 35.9058 10.3142C35.5646 10.6173 35.5059 10.8064 35.2412 10.5632C35.1503 10.4797 35.1289 10.4601 34.1427 9.48064Z" fill="#A3BCF0"/>
<path fill-rule="evenodd" clip-rule="evenodd" d="M28.8508 14.2549C29.721 13.4037 29.7174 13.4022 30.4788 12.6679C30.8497 12.3103 30.911 12.2364 31.0251 12.2478C31.1419 12.2595 31.8222 12.9931 32.0973 13.2768C32.2658 13.4508 32.4424 13.5363 32.3691 13.723C32.3308 13.8209 31.243 14.8324 31.1665 14.9062C30.5209 15.5279 30.188 15.9066 30.0878 15.9162C29.9353 15.9307 29.9613 15.8587 29.4651 15.3739C28.9407 14.8616 28.9477 14.8551 28.8968 14.8029C28.681 14.5813 28.5899 14.512 28.8508 14.2549Z" fill="#A3BCF0"/>
<path fill-rule="evenodd" clip-rule="evenodd" d="M8.64896 36.9577C8.43786 37.172 8.38278 37.2818 8.17231 37.0652C8.11358 37.0048 8.12096 37.0002 7.50607 36.3816C6.97828 35.8508 6.93816 35.7893 7.02723 35.6495C7.07421 35.576 8.03448 34.6581 8.12325 34.5732C8.19527 34.5044 8.19153 34.5025 9.0064 33.6968C9.21469 33.4909 9.26479 33.3962 9.47734 33.596C9.58273 33.695 10.6121 34.7094 10.6545 34.8047C10.7506 35.0204 10.6198 35.0124 9.69768 35.9328C9.52463 36.1055 8.73305 36.876 8.64896 36.9577Z" fill="#A3BCF0"/>
<path fill-rule="evenodd" clip-rule="evenodd" d="M30.4114 12.1906C30.0752 12.5055 28.4685 14.1156 28.4199 14.1356C28.2508 14.2054 28.1496 14.0549 27.863 13.7623C27.826 13.7245 27.4384 13.3533 27.1385 13.0344C26.9291 12.8117 26.8605 12.7433 27.1037 12.5193C27.6881 11.9816 27.8131 11.7664 28.8945 10.7838C29.1609 10.5418 29.206 10.3688 29.4661 10.6186C29.5507 10.6998 29.5486 10.7013 30.4964 11.6613C30.7571 11.9253 30.6124 12.0023 30.4114 12.1906Z" fill="#A3BCF0"/>
<path fill-rule="evenodd" clip-rule="evenodd" d="M29.3731 16.6379C29.018 16.9813 29.0375 16.9983 28.1136 17.8654C27.4908 18.4498 27.4146 18.69 27.0907 18.355C27.0715 18.3351 26.76 17.9802 26.3864 17.6061C25.9829 17.2021 25.9824 17.1882 25.9807 17.1389C25.9761 17.0002 26.0323 17.0203 26.7479 16.3006C26.8388 16.2091 26.8516 16.2236 27.905 15.1769C28.2285 14.8554 28.2734 14.8549 28.3152 14.8544C28.4374 14.853 28.6445 15.1321 28.867 15.3475C28.935 15.4134 29.677 16.1318 29.6928 16.1947C29.7314 16.3486 29.6065 16.4142 29.3731 16.6379Z" fill="#A3BCF0"/>
<path fill-rule="evenodd" clip-rule="evenodd" d="M27.6739 14.1562C27.9414 14.4138 28.0489 14.4844 27.7879 14.7489C27.0153 15.5316 26.9909 15.5042 26.2169 16.2875C25.7662 16.7435 25.648 16.8553 25.4489 16.6772C25.3747 16.6108 25.3986 16.5891 24.5698 15.7965C24.3352 15.5723 24.0995 15.4349 24.3665 15.1706C24.479 15.0592 24.485 15.0667 25.792 13.7958C26.4117 13.1932 26.4052 13.1849 26.4697 13.1463C26.6249 13.0538 26.8297 13.3132 26.897 13.3754C26.9618 13.4351 27.1217 13.5829 27.6739 14.1562Z" fill="#A3BCF0"/>
<path fill-rule="evenodd" clip-rule="evenodd" d="M13.9625 28.2841C13.8234 28.4255 12.7574 29.4648 12.6523 29.5673C12.6356 29.5836 12.636 29.5836 12.4446 29.7726C12.0685 30.1438 11.995 30.252 11.8252 30.1194C11.7872 30.0896 11.1591 29.4575 11.1015 29.3995C10.5882 28.883 10.493 28.8285 10.6692 28.6241C10.8031 28.4689 10.8128 28.4793 12.5018 26.832C12.7879 26.553 12.8457 26.3775 13.1329 26.6545C13.2131 26.7317 13.2027 26.7406 14.1181 27.6366C14.3118 27.8262 14.356 27.8804 14.1702 28.0782C14.1133 28.1388 13.9794 28.2679 13.9625 28.2841Z" fill="#A3BCF0"/>
<path fill-rule="evenodd" clip-rule="evenodd" d="M7.30969 31.9028C7.41861 31.7977 7.54407 31.5889 7.79102 31.8623C8.79464 32.9729 8.8385 32.9291 8.9204 33.03C9.04336 33.1817 8.90865 33.1864 8.41703 33.7328C8.40466 33.7466 7.92343 34.232 7.84538 34.296C7.71878 34.3999 7.73562 34.4155 7.63563 34.5006C7.35906 34.7365 7.05858 35.0847 7.01388 35.1228C7.00037 35.1342 6.93063 35.1938 6.84935 35.2714C6.58754 35.5218 6.52798 35.3865 6.27562 35.1271C6.20214 35.0515 5.49827 34.3281 5.36357 34.176C5.1664 33.9534 5.26753 33.9072 5.48133 33.7019C5.79304 33.4027 7.08716 32.1285 7.30969 31.9028Z" fill="#A3BCF0"/>
<path fill-rule="evenodd" clip-rule="evenodd" d="M15.1184 28.0912C14.9972 27.9556 14.9433 27.9484 15.0199 27.785C15.0315 27.76 16.127 26.6981 16.2239 26.6042C17.2243 25.6344 17.2208 25.6173 17.3007 25.6103C17.4121 25.6006 17.4125 25.6321 18.3251 26.5567C18.6347 26.8705 18.844 26.9354 18.5283 27.2424C17.9463 27.8084 17.9516 27.813 17.9008 27.862C16.4836 29.2293 16.4917 29.2671 16.3655 29.2666C16.1762 29.2658 15.609 28.5535 15.1184 28.0912Z" fill="#A3BCF0"/>
<path fill-rule="evenodd" clip-rule="evenodd" d="M33.5254 8.85337C33.2197 8.56138 32.3955 7.73617 32.3818 7.71995C32.1677 7.46569 32.3283 7.42372 32.8212 6.93784C33.6065 6.16389 33.6032 6.16296 34.403 5.40473C34.6587 5.16235 34.704 5.32721 34.9554 5.5732C35.0308 5.64689 35.8754 6.47324 35.8959 6.49691C36.1082 6.74125 35.9511 6.79355 35.2402 7.48057C33.9775 8.70081 33.9718 8.6941 33.8622 8.80035C33.6502 9.00644 33.6156 8.87497 33.5254 8.85337Z" fill="#A3BCF0"/>
<path fill-rule="evenodd" clip-rule="evenodd" d="M11.6736 31.0745C11.8758 30.8756 11.9273 30.759 12.1195 30.9684C12.5162 31.4005 12.5403 31.3757 12.9409 31.8056C13.2757 32.1648 13.2883 32.1969 13.3047 32.2391C13.3735 32.4161 13.2634 32.4052 11.84 33.8239C11.1538 34.5079 11.1044 34.5612 10.9528 34.5134C10.879 34.4902 10.0619 33.6182 9.8086 33.3698C9.61164 33.1766 9.59366 33.1125 9.79602 32.9256C10.0313 32.7083 11.5242 31.2233 11.6736 31.0745Z" fill="#A3BCF0"/>
<path fill-rule="evenodd" clip-rule="evenodd" d="M31.3062 11.3211C31.0738 11.555 31.0066 11.6181 30.7682 11.3909C30.4754 11.1118 29.6579 10.2724 29.6433 10.2215C29.5829 10.012 29.6993 10.0326 30.9864 8.72852C31.0552 8.65875 31.8057 7.89835 31.8711 7.88243C32.036 7.84212 32.1866 8.11333 32.8249 8.72356C33.308 9.18536 33.4103 9.26092 33.1906 9.47342C32.2411 10.3922 32.2502 10.3979 31.3062 11.3211Z" fill="#A3BCF0"/>
<path fill-rule="evenodd" clip-rule="evenodd" d="M16.7888 25.5192C14.7565 27.4746 14.7381 27.5568 14.6055 27.5313C14.5225 27.5153 14.1773 27.1175 13.9356 26.891C13.5418 26.5219 13.2597 26.2556 13.2761 26.134C13.3005 25.9521 13.9048 25.5261 14.7508 24.6289C14.7758 24.6025 15.3381 24.0717 15.3892 24.0234C15.4983 23.9204 15.4804 23.8675 15.6304 23.8795C15.7251 23.887 15.712 23.9172 16.0566 24.2618C16.1304 24.3356 16.9052 25.1105 16.9508 25.2121C16.9938 25.3081 16.906 25.4026 16.8944 25.4149C16.8433 25.4699 16.8425 25.4662 16.7888 25.5192Z" fill="#A3BCF0"/>
<path fill-rule="evenodd" clip-rule="evenodd" d="M28.1924 26.1356C28.1664 26.1656 28.1083 26.173 28.0132 26.343C27.9955 26.3748 27.9521 26.4603 27.9469 26.4706C27.8308 26.6997 27.7104 26.7245 27.655 26.7734C27.2516 26.406 27.2737 26.3862 26.8936 25.9969C26.6372 25.7341 26.6581 25.6107 26.6254 25.5143C26.5972 25.4303 26.3841 24.9172 25.9168 25.3939C25.4949 25.8243 25.826 26.08 26.0272 26.1439C26.2815 26.2246 26.2893 26.2178 26.4763 26.4072C26.8478 26.7835 26.8824 26.7458 27.2824 27.1544C27.126 27.256 26.9741 27.4461 26.4461 27.397C26.1781 27.3721 25.7163 27.2884 25.628 27.3731C25.6164 27.3841 25.6202 27.3857 25.5223 27.5428C25.0563 27.4143 25.0558 27.4196 24.5781 27.3496C24.4787 27.3351 24.0221 27.3435 24.2434 27.0448C24.5967 26.5682 24.5835 26.5597 24.9627 26.1045C25.7864 25.1157 25.8064 25.1334 26.7811 24.2923C27.1559 23.9689 27.2453 23.938 27.3719 23.8371C27.6153 23.6431 27.6415 23.8516 27.7027 24.0571C27.8339 24.4979 27.8874 24.9225 27.9935 25.3039C28.1081 25.7162 28.0959 25.7172 28.1924 26.1356Z" fill="#E1EAFF"/>
<path fill-rule="evenodd" clip-rule="evenodd" d="M8.98238 32.5376C8.47257 32.0162 8.11907 31.6743 8.05162 31.6028C7.79271 31.3283 7.98801 31.2553 8.10671 31.1412C8.4313 30.8294 8.41498 30.8149 9.3657 29.9123C10.0859 29.2285 10.1487 29.0723 10.3194 29.1519C10.3287 29.1562 11.0225 29.8703 11.0834 29.9331C11.5314 30.3943 11.7477 30.4525 11.5024 30.6962C10.7352 31.4581 10.0529 32.108 9.9255 32.2294C9.71305 32.4317 9.72022 32.4363 9.51744 32.6495C9.2839 32.8953 9.21686 32.7828 8.98238 32.5376Z" fill="#A3BCF0"/>
<path fill-rule="evenodd" clip-rule="evenodd" d="M21.8861 22.2124C21.4153 22.8051 21.1306 23.4303 21.0714 23.5505C20.9986 23.6984 21.0111 23.7013 20.9711 23.86C20.9623 23.8246 20.9962 23.7873 20.9874 23.752C20.9657 23.6647 20.8241 23.5879 20.5992 23.3699C20.4768 23.2512 19.7851 22.5805 19.0848 21.8718C18.4792 21.2586 18.3501 21.2261 18.4746 20.8681C18.6494 20.3659 18.6189 20.3495 18.9698 19.8273C19.1818 19.5117 19.2738 19.7344 19.654 20.0775C20.1464 20.5218 21.2139 21.6211 21.2646 21.6686C21.7357 22.1101 21.7256 22.1202 21.7705 22.1539C21.805 22.1797 21.8515 22.1865 21.8861 22.2124Z" fill="#A3BCF0"/>
<path fill-rule="evenodd" clip-rule="evenodd" d="M24.9744 22.446C24.7304 22.3389 24.7366 22.3113 24.4711 22.2989C23.8931 22.2719 22.8136 23.0735 22.7451 23.9624C22.7027 24.512 22.9784 24.6163 22.9464 24.7905C22.9174 24.9483 22.3257 25.1092 22.0825 25.1255C20.9497 25.2018 21.2717 23.4632 23.0308 21.9054C23.2257 21.7328 23.4655 21.5647 23.7134 21.4231C24.2006 21.1451 24.7191 20.9694 24.9906 21.0627C25.3502 21.1864 25.3928 21.5885 25.3115 21.9945C25.1917 22.5925 24.9878 22.4421 24.9744 22.446Z" fill="#E1EAFF"/>
<path fill-rule="evenodd" clip-rule="evenodd" d="M19.1946 18.1077C19.0977 17.962 19.1186 17.9432 18.9718 17.8444C18.4782 17.5121 18.2463 17.1508 18.1299 17.1719C17.9115 17.2116 17.1053 18.1352 16.8289 18.8072C16.6233 19.3069 16.6238 19.3634 16.9217 19.6706C17.2237 19.982 17.453 20.0682 17.5078 20.1174C17.5465 20.1523 17.5718 20.2 17.6105 20.2348C17.5014 20.3105 17.5036 20.3371 17.3011 20.3215C16.9846 20.2971 16.9378 20.2086 16.8729 20.1434C16.6309 19.9007 16.3518 19.6524 16.3044 19.4007C16.2665 19.1987 16.4218 18.6383 16.7435 18.147C16.9455 17.8384 16.9815 17.6585 17.7448 16.9574C18.3084 16.4396 19.2787 15.8425 19.8037 15.9618C20.0915 16.0272 20.5001 16.5764 20.5216 16.6184C20.5411 16.6565 20.6526 16.8745 20.5613 17.1499C20.544 17.2018 20.5195 17.2757 19.9967 17.5383C19.7513 17.6615 19.2642 18.0449 19.1946 18.1077Z" fill="#E1EAFF"/>
<path fill-rule="evenodd" clip-rule="evenodd" d="M16.4724 30.7846C16.5082 30.7934 16.5301 30.7372 16.6525 30.8287C17.5254 31.4807 17.7458 31.7078 19.3916 32.51C19.4922 32.5589 20.659 33.0461 21.2444 33.1785C22.4627 33.4539 22.4944 33.3318 22.5774 33.4006C22.595 33.4153 22.5769 33.4488 22.5891 33.4682C22.6043 33.4926 22.6541 33.4955 22.655 33.5243C22.6608 33.7322 19.8715 33.295 19.1773 33.0362C19.1737 33.0349 17.7933 32.6545 16.7635 32.0499C16.3686 31.818 16.2142 31.6996 16.1284 31.6488C15.9503 31.5432 15.9387 31.5567 15.8896 31.4881C15.8181 31.3883 15.912 31.2819 16.2538 30.9769C16.3638 30.8787 16.362 30.8796 16.4724 30.7846Z" fill="#E1EAFF"/>
<path fill-rule="evenodd" clip-rule="evenodd" d="M19.1953 18.1085C18.8682 18.4485 18.8557 18.4335 18.5405 18.7838C17.953 19.4368 17.7417 19.9988 17.6112 20.2356C17.5725 20.2007 17.5472 20.153 17.5085 20.1181C17.4537 20.069 17.2243 19.9828 16.9224 19.6713C16.6245 19.3642 16.624 19.3076 16.8296 18.8079C17.1059 18.1359 17.9122 17.2123 18.1306 17.1726C18.247 17.1516 18.4788 17.5128 18.9724 17.8451C19.1193 17.9439 19.0984 17.9627 19.1953 18.1085Z" fill="#A3BCF0"/>
<path fill-rule="evenodd" clip-rule="evenodd" d="M30.0984 22.6844C30.0737 22.7375 30.0101 22.7663 29.9855 22.8194C29.9156 22.9704 30.3212 23.0961 29.5758 24.5818C29.3454 25.0409 28.7639 25.8198 28.6869 25.9229C28.5514 25.3008 28.5285 25.3079 28.4019 24.6823C28.1959 23.664 27.9186 23.3854 28.3362 23.1696C28.729 22.9666 28.7224 22.9574 29.1216 22.7683C29.1697 22.7455 29.4521 22.6118 29.7716 22.6188C29.788 22.6191 29.8924 22.6214 29.9765 22.637C30.0797 22.6562 30.0711 22.6738 30.0984 22.6844Z" fill="#E1EAFF"/>
<path fill-rule="evenodd" clip-rule="evenodd" d="M29.684 8.46938C29.5178 8.63176 29.4463 8.75475 29.2246 8.59806C28.6759 8.21006 27.4121 7.6295 27.0756 7.50681C26.7253 7.37906 26.6384 7.30898 26.8161 6.98278C27.0705 6.51529 27.0419 6.47933 27.1582 6.44222C27.322 6.39002 27.5635 6.55943 28.1117 6.7925C28.1631 6.81441 28.1607 6.81834 28.737 7.1002C28.7804 7.12139 30.0077 7.79373 30.0668 7.85202C30.2288 8.01161 29.9351 8.2268 29.8949 8.26597C29.7892 8.36933 29.79 8.36809 29.684 8.46938Z" fill="#E1EAFF"/>
<path fill-rule="evenodd" clip-rule="evenodd" d="M26.3414 28.2168C26.3029 28.2504 26.2781 28.2977 26.2396 28.3313C26.2082 28.3587 26.166 28.3716 26.1338 28.3982C26.1072 28.4201 26.122 28.4344 26.0286 28.5005C25.7794 28.6767 25.7867 28.6833 25.5318 28.8515C25.3241 28.9886 24.5664 29.4417 24.0561 29.5325C23.682 29.5991 23.5328 29.5165 23.4333 29.5609C23.3836 29.5832 23.3469 29.6289 23.2973 29.651C23.2708 29.5776 23.0906 29.4147 23.3654 28.6182C23.4738 28.304 23.7767 27.8214 23.781 27.8178C23.9035 27.7136 23.9249 27.7983 24.8832 27.9288C24.8838 27.9289 25.9753 28.1234 26.3414 28.2168Z" fill="#A3BCF0"/>
<path fill-rule="evenodd" clip-rule="evenodd" d="M16.675 23.7873C17.459 23.8177 17.4528 23.8777 18.235 23.9004C18.5326 23.9089 18.6247 23.9081 18.6567 24.1633C18.7263 24.7189 18.6307 25.0265 18.7417 26.1271C18.7532 26.2412 18.7633 26.2648 18.6566 26.3037C18.5912 26.3275 18.6206 26.2618 18.2076 25.8453C16.6384 24.2626 16.6433 24.2613 16.5057 24.1251C16.3063 23.9279 16.2759 23.9416 16.2735 23.8545C16.2704 23.7393 16.4205 23.7661 16.675 23.7873Z" fill="#A3BCF0"/>
<path fill-rule="evenodd" clip-rule="evenodd" d="M26.6323 18.5476C26.5499 18.5509 26.552 18.5665 26.4453 18.555C26.3377 18.5435 26.3372 18.5652 25.0952 18.4652C24.6414 18.4287 24.3258 18.4991 24.276 18.2686C24.2414 18.1085 24.2119 16.567 24.1976 16.4081C24.1786 16.1962 24.1423 16.1864 24.1964 16.1247C24.2056 16.1142 24.3113 16.1037 24.3513 16.1239C24.3876 16.1423 24.3658 16.1651 24.7009 16.4922C25.0712 16.8536 25.7927 17.5903 25.8869 17.6865C26.4874 18.2994 26.5071 18.3149 26.5675 18.3623C26.6226 18.4054 26.6261 18.4069 26.631 18.4762C26.6327 18.4999 26.6307 18.5238 26.6323 18.5476Z" fill="#A3BCF0"/>
<path fill-rule="evenodd" clip-rule="evenodd" d="M22.1833 21.3696C21.9181 21.6071 21.8342 21.6812 21.6819 21.5583C21.5955 21.4884 21.6151 21.4703 20.7022 20.5739C20.1432 20.025 20.1841 19.9421 20.2101 19.7185C20.2129 19.6946 20.2416 19.4476 20.2528 19.4202C20.3852 19.0965 20.683 19.4227 20.8614 19.5906C21.2879 19.9921 21.2697 20.0081 21.6945 20.4114C22.1096 20.8055 22.0948 20.8194 22.2896 20.959C22.4996 21.1095 22.3176 21.2437 22.1833 21.3696Z" fill="#A3BCF0"/>
<path fill-rule="evenodd" clip-rule="evenodd" d="M23.1328 27.1522C23.1409 27.063 23.1129 27.0581 23.1892 26.8454C23.2464 26.686 23.2512 26.69 23.3116 26.5336C23.3437 26.4506 23.5417 25.9379 23.7881 25.5273C23.8276 25.4616 24.1415 24.9385 24.3136 24.7254C24.3502 24.6801 24.8206 24.1944 24.9244 24.1091C25.1608 23.9147 25.8233 23.6015 25.9728 23.7002C26.068 23.763 26.0484 23.7971 25.9609 23.8702C25.9378 23.8895 25.9185 23.9131 25.8963 23.9336C24.886 24.8599 24.6884 25.1547 24.3315 25.5741C23.3408 26.7376 23.3824 27.0581 23.2249 27.1519C23.1985 27.1676 23.1591 27.1365 23.1328 27.1522Z" fill="#A3BCF0"/>
<path fill-rule="evenodd" clip-rule="evenodd" d="M30.099 22.6852C30.2579 22.8302 30.3368 22.8425 30.3504 23.3359C30.3544 23.4831 30.3659 23.8992 29.7234 25.0668C29.7029 25.1043 29.5122 25.3953 29.4936 25.4236C29.1957 25.8785 29.085 25.9764 28.97 26.1534C28.9588 26.1706 28.802 26.4118 28.7261 26.2356C28.7085 26.195 28.7024 26.145 28.7013 26.1369C28.6882 26.0303 28.7007 26.031 28.6875 25.9237C28.7645 25.8205 29.3459 25.0416 29.5764 24.5825C30.3218 23.0968 29.9161 22.9712 29.9861 22.8202C30.0107 22.767 30.0743 22.7383 30.099 22.6852Z" fill="#A3BCF0"/>
<path fill-rule="evenodd" clip-rule="evenodd" d="M26.341 28.2171C26.5771 28.2436 26.7623 28.2487 26.7421 28.3967C26.7324 28.4669 26.7094 28.454 26.1194 28.8982C26.0646 28.9394 25.829 29.0891 25.7396 29.1523C25.3577 29.4228 24.8679 29.6191 24.7881 29.6511C24.7878 29.6512 24.195 29.9483 23.638 29.8714C23.3604 29.833 23.3249 29.6866 23.2969 29.6513C23.3466 29.6292 23.3832 29.5835 23.4329 29.5613C23.5324 29.5169 23.6817 29.5995 24.0557 29.5329C24.5661 29.442 25.3238 28.9889 25.5314 28.8519C25.7863 28.6837 25.779 28.6771 26.0282 28.5009C26.1216 28.4348 26.1068 28.4205 26.1334 28.3985C26.1656 28.372 26.2078 28.3591 26.2392 28.3317C26.2777 28.2981 26.3025 28.2507 26.341 28.2171Z" fill="#A3BCF0"/>
<path fill-rule="evenodd" clip-rule="evenodd" d="M29.3946 28.4096C29.3885 28.4253 29.3555 28.636 29.1293 28.776C28.6564 29.0689 28.1026 28.491 28.4473 28.0048C28.5523 27.8566 28.804 27.7304 29.0335 27.8191C29.4848 27.9934 29.3943 28.394 29.3946 28.4096Z" fill="#E1EAFF"/>
<path fill-rule="evenodd" clip-rule="evenodd" d="M24.5562 23.3125C24.3509 23.4876 24.3367 23.4704 23.8716 23.9759C23.6681 24.197 23.5485 24.4136 23.4174 24.2864C23.2474 24.1214 23.3494 23.655 23.6683 23.3597C23.6858 23.3435 24.2729 22.7171 24.655 22.9593C24.667 22.967 24.7722 23.0336 24.7391 23.1163C24.7311 23.1362 24.7122 23.1831 24.5562 23.3125Z" fill="#E1EAFF"/>
<path fill-rule="evenodd" clip-rule="evenodd" d="M27.2817 27.1539C27.3342 27.1988 27.8202 27.6132 27.8709 27.7848C27.8904 27.851 27.8049 27.9309 27.7825 27.9361C27.7537 27.9429 27.3807 27.9048 26.7645 27.7519C26.4241 27.6674 26.1725 27.6653 25.5215 27.5424C25.6194 27.3853 25.6156 27.3837 25.6272 27.3727C25.7155 27.288 26.1773 27.3716 26.4454 27.3965C26.9734 27.4456 27.1252 27.2555 27.2817 27.1539Z" fill="#A3BCF0"/>
<path fill-rule="evenodd" clip-rule="evenodd" d="M17.2805 16.0578C17.3748 16.0236 17.4179 15.9868 17.7157 15.9328C17.854 15.9077 17.9227 15.8591 17.9228 15.9988C17.9229 16.0913 17.9018 16.0906 17.8507 16.1248C17.7534 16.1899 17.7523 16.1845 17.6527 16.2484C17.5884 16.2897 17.1185 16.7004 16.8931 16.9376C16.6614 17.1813 16.6865 17.1991 16.4743 17.4584C16.4621 17.4732 16.4641 17.5069 16.4448 17.508C16.4278 17.5089 16.3082 17.4444 16.3066 17.4355C16.3065 17.4345 16.3645 17.061 16.4847 16.8351C16.7657 16.3066 17.0175 16.1878 17.2805 16.0578Z" fill="#E1EAFF"/>
<path fill-rule="evenodd" clip-rule="evenodd" d="M28.1916 26.1356C28.2119 26.2172 28.3546 26.7908 28.4222 27.1607C28.4257 27.1799 28.4631 27.3846 28.317 27.3819C28.2149 27.3799 27.7506 26.8712 27.6543 26.7734C27.7097 26.7245 27.8301 26.6997 27.9462 26.4706C27.9513 26.4604 27.9948 26.3748 28.0125 26.343C28.1076 26.173 28.1657 26.1656 28.1916 26.1356Z" fill="#A3BCF0"/>
<path fill-rule="evenodd" clip-rule="evenodd" d="M22.8855 28.5965C22.8814 28.6296 22.8798 28.663 22.8757 28.6961C22.8653 28.7807 22.8677 28.7825 22.862 28.787C22.8265 28.8155 22.8256 28.7361 22.791 28.7638C22.7978 28.7511 22.8188 28.7503 22.8255 28.7377C22.8287 28.7316 22.8172 28.7302 22.849 28.6551C22.8626 28.6232 22.8709 28.6307 22.8855 28.5965Z" fill="#587A9C"/>
<path fill-rule="evenodd" clip-rule="evenodd" d="M34.3184 33.2585C34.3141 33.3318 34.3098 33.4052 34.3056 33.4785L34.2715 33.4402C34.2871 33.3797 34.3028 33.3191 34.3184 33.2585Z" fill="#486C95"/>
<defs>
<clipPath id="clip0_8290_24029">
<rect width="42" height="42" fill="white"/>
</clipPath>
</defs>
</svg>
