<svg width="24" height="24" viewBox="0 0 24 24" fill="none" xmlns="http://www.w3.org/2000/svg">
<mask id="mask0_7657_53264" style="mask-type:alpha" maskUnits="userSpaceOnUse" x="0" y="0" width="24" height="24">
<rect width="24" height="24" fill="#D9D9D9"/>
</mask>
<g mask="url(#mask0_7657_53264)">
<path d="M12 21.75C10.6515 21.75 9.38425 21.4937 8.19825 20.981C7.01242 20.4682 5.98083 19.7723 5.1035 18.8935C4.22617 18.0145 3.53125 16.9826 3.01875 15.7978C2.50625 14.6131 2.25 13.3472 2.25 12C2.25 10.6515 2.50633 9.38425 3.019 8.19825C3.53183 7.01242 4.22767 5.98083 5.1065 5.1035C5.9855 4.22617 7.01742 3.53125 8.20225 3.01875C9.38692 2.50625 10.6528 2.25 12 2.25C13.3485 2.25 14.6158 2.50633 15.8018 3.019C16.9876 3.53183 18.0192 4.22767 18.8965 5.1065C19.7738 5.9855 20.4688 7.01742 20.9813 8.20225C21.4938 9.38692 21.75 10.6528 21.75 12C21.75 13.3485 21.4937 14.6158 20.981 15.8018C20.4682 16.9876 19.7723 18.0192 18.8935 18.8965C18.0145 19.7738 16.9826 20.4688 15.7978 20.9813C14.6131 21.4938 13.3472 21.75 12 21.75ZM12 19.875C14.1917 19.875 16.0521 19.1104 17.5813 17.5813C19.1104 16.0521 19.875 14.1917 19.875 12C19.875 9.80833 19.1104 7.94792 17.5813 6.41875C16.0521 4.88958 14.1917 4.125 12 4.125C9.80833 4.125 7.94792 4.88958 6.41875 6.41875C4.88958 7.94792 4.125 9.80833 4.125 12C4.125 14.1917 4.88958 16.0521 6.41875 17.5813C7.94792 19.1104 9.80833 19.875 12 19.875Z" fill="#FF4D4D"/>
<mask id="mask1_7657_53264" style="mask-type:alpha" maskUnits="userSpaceOnUse" x="6" y="6" width="12" height="12">
<rect x="6.66602" y="6.66602" width="10.6667" height="10.6667" fill="#D9D9D9"/>
</mask>
<g mask="url(#mask1_7657_53264)">
<path d="M8.57143 13.3327C8.40952 13.3327 8.27381 13.2049 8.16429 12.9493C8.05476 12.6938 8 12.3771 8 11.9993C8 11.6216 8.05476 11.3049 8.16429 11.0493C8.27381 10.7938 8.40952 10.666 8.57143 10.666H15.4286C15.5905 10.666 15.7262 10.7938 15.8357 11.0493C15.9452 11.3049 16 11.6216 16 11.9993C16 12.3771 15.9452 12.6938 15.8357 12.9493C15.7262 13.2049 15.5905 13.3327 15.4286 13.3327H8.57143Z" fill="#FF4D4D"/>
</g>
</g>
</svg>
